<svg width="25" height="10" viewBox="0 0 25 10" fill="none" xmlns="http://www.w3.org/2000/svg">
<path fill-rule="evenodd" clip-rule="evenodd" d="M21.4261 0H1.53312C0.686402 0 0 0.681655 0 1.53067V8.1632C0 9.00857 0.687123 9.69388 1.53312 9.69388H21.4261C22.2728 9.69388 22.9592 9.01222 22.9592 8.1632V1.53067C22.9592 0.685306 22.2721 0 21.4261 0ZM0.510204 1.53067C0.510204 0.965065 0.966544 0.510204 1.53312 0.510204H21.4261C21.9908 0.510204 22.449 0.967553 22.449 1.53067V8.1632C22.449 8.72881 21.9926 9.18367 21.4261 9.18367H1.53312C0.968432 9.18367 0.510204 8.72633 0.510204 8.1632V1.53067Z" fill="black"/>
<path fill-rule="evenodd" clip-rule="evenodd" d="M1.53061 1.02041C1.24883 1.02041 1.02041 1.24883 1.02041 1.53061V8.16327C1.02041 8.44504 1.24883 8.67347 1.53061 8.67347H10.2041V1.02041H1.53061Z" fill="black"/>
<path fill-rule="evenodd" clip-rule="evenodd" d="M25 4.84694C25 5.75575 24.3348 6.5076 23.4694 6.63265V3.06122C24.3348 3.18627 25 3.93812 25 4.84694Z" fill="black"/>
</svg>
