<svg width="17" height="17" viewBox="0 0 17 17" fill="none" xmlns="http://www.w3.org/2000/svg">
<path fill-rule="evenodd" clip-rule="evenodd" d="M3.70513 1.30769C1.30769 1.30769 1.30769 1.48903 1.30769 3.70513V3.72693C1.30769 4.692 1.30769 5.38944 1.54395 5.68411C1.77498 5.97006 2.46108 6.10257 3.70513 6.10257C4.94918 6.10257 5.63529 5.96919 5.86631 5.68324C6.10257 5.38944 6.10257 4.692 6.10257 3.72605C6.10257 1.48903 6.10257 1.30769 3.70513 1.30769ZM3.70513 7.41026C2.23528 7.41026 1.13246 7.25595 0.526565 6.5036C0 5.85062 0 4.95965 0 3.72693L0.653847 3.70513H0C0 1.20308 0.157795 0 3.70513 0C7.25247 0 7.41026 1.20308 7.41026 3.70513C7.41026 4.95877 7.41026 5.85062 6.8837 6.5036C6.2778 7.25595 5.17498 7.41026 3.70513 7.41026Z" fill="#113E21"/>
<path fill-rule="evenodd" clip-rule="evenodd" d="M13.2949 1.30769C10.8974 1.30769 10.8974 1.48903 10.8974 3.70513V3.72693C10.8974 4.692 10.8974 5.38944 11.1337 5.68411C11.3647 5.97006 12.0508 6.10257 13.2949 6.10257C14.5389 6.10257 15.225 5.96919 15.456 5.68324C15.6923 5.38944 15.6923 4.692 15.6923 3.72605C15.6923 1.48903 15.6923 1.30769 13.2949 1.30769ZM13.2949 7.41026C11.825 7.41026 10.7222 7.25595 10.1163 6.5036C9.58973 5.85062 9.58973 4.95965 9.58973 3.72693L10.2436 3.70513H9.58973C9.58973 1.20308 9.74753 0 13.2949 0C16.8422 0 17 1.20308 17 3.70513C17 4.95877 17 5.85062 16.4734 6.5036C15.8675 7.25595 14.7647 7.41026 13.2949 7.41026Z" fill="#113E21"/>
<path fill-rule="evenodd" clip-rule="evenodd" d="M3.70513 10.8974C1.30769 10.8974 1.30769 11.0788 1.30769 13.2949V13.3167C1.30769 14.2817 1.30769 14.9792 1.54395 15.2738C1.77498 15.5598 2.46108 15.6923 3.70513 15.6923C4.94918 15.6923 5.63529 15.5589 5.86631 15.273C6.10257 14.9792 6.10257 14.2817 6.10257 13.3158C6.10257 11.0788 6.10257 10.8974 3.70513 10.8974ZM3.70513 17C2.23528 17 1.13246 16.8457 0.526565 16.0933C0 15.4404 0 14.5494 0 13.3167L0.653847 13.2949H0C0 10.7928 0.157795 9.58974 3.70513 9.58974C7.25247 9.58974 7.41026 10.7928 7.41026 13.2949C7.41026 14.5485 7.41026 15.4404 6.8837 16.0933C6.2778 16.8457 5.17498 17 3.70513 17Z" fill="#113E21"/>
<path fill-rule="evenodd" clip-rule="evenodd" d="M13.2949 10.8974C10.8974 10.8974 10.8974 11.0788 10.8974 13.2949V13.3167C10.8974 14.2817 10.8974 14.9792 11.1337 15.2738C11.3647 15.5598 12.0508 15.6923 13.2949 15.6923C14.5389 15.6923 15.225 15.5589 15.456 15.273C15.6923 14.9792 15.6923 14.2817 15.6923 13.3158C15.6923 11.0788 15.6923 10.8974 13.2949 10.8974ZM13.2949 17C11.825 17 10.7222 16.8457 10.1163 16.0933C9.58973 15.4404 9.58973 14.5494 9.58973 13.3167L10.2436 13.2949H9.58973C9.58973 10.7928 9.74753 9.58974 13.2949 9.58974C16.8422 9.58974 17 10.7928 17 13.2949C17 14.5485 17 15.4404 16.4734 16.0933C15.8675 16.8457 14.7647 17 13.2949 17Z" fill="#113E21"/>
</svg>
