<svg width="18" height="18" viewBox="0 0 18 18" fill="none" xmlns="http://www.w3.org/2000/svg">
<path d="M8.82609 13.7143C10.0397 13.7143 11.0326 12.9429 11.0326 12C11.0326 11.0571 10.0397 10.2857 8.82609 10.2857C7.6125 10.2857 6.61957 11.0571 6.61957 12C6.61957 12.9429 7.6125 13.7143 8.82609 13.7143ZM15.4457 6H14.3424V4.28571C14.3424 1.92 11.8711 0 8.82609 0C5.78109 0 3.30978 1.92 3.30978 4.28571V6H2.20652C0.992935 6 0 6.77143 0 7.71428V16.2857C0 17.2286 0.992935 18 2.20652 18H15.4457C16.6592 18 17.6522 17.2286 17.6522 16.2857V7.71428C17.6522 6.77143 16.6592 6 15.4457 6ZM5.40598 4.28571C5.40598 2.82 6.93951 1.62857 8.82609 1.62857C10.7127 1.62857 12.2462 2.82 12.2462 4.28571V6H5.40598V4.28571ZM15.4457 16.2857H2.20652V7.71428H15.4457V16.2857Z" fill="#00754A"/>
</svg>
