<svg width="4" height="4" viewBox="0 0 4 4" fill="none" xmlns="http://www.w3.org/2000/svg">
<mask id="mask0_0_5" style="mask-type:alpha" maskUnits="userSpaceOnUse" x="0" y="0" width="4" height="4">
<path fill-rule="evenodd" clip-rule="evenodd" d="M0 0H3.3504V4H0V0Z" fill="white"/>
</mask>
<g mask="url(#mask0_0_5)">
<path fill-rule="evenodd" clip-rule="evenodd" d="M1.66309 4C1.3964 4 1.14472 3.83751 1.04405 3.57347C0.91335 3.23171 1.08555 2.84845 1.42731 2.71864C2.02604 2.4908 2.02604 2.23912 2.02604 2.11814C2.02604 1.73135 1.53416 1.46113 0.564531 1.3163C0.203349 1.26155 -0.0465639 0.925092 0.00730433 0.562144C0.0611725 0.200079 0.396745 -0.0410037 0.761459 0.00579985C2.90118 0.32636 3.35067 1.33131 3.35067 2.11814C3.35067 2.59854 3.16169 3.47545 1.89887 3.95673C1.82116 3.98587 1.74168 4 1.66309 4" fill="#113E21"/>
</g>
</svg>
