<svg width="18" height="16" viewBox="0 0 18 16" fill="none" xmlns="http://www.w3.org/2000/svg">
<mask id="mask0_0_105" style="mask-type:alpha" maskUnits="userSpaceOnUse" x="0" y="0" width="18" height="16">
<path fill-rule="evenodd" clip-rule="evenodd" d="M0 0H17.2231V16H0V0Z" fill="white"/>
</mask>
<g mask="url(#mask0_0_105)">
<path fill-rule="evenodd" clip-rule="evenodd" d="M5.0051 1.25177C2.93551 1.25177 1.25147 2.93581 1.25147 5.0054V10.9947C1.25147 13.0643 2.93551 14.7483 5.0051 14.7483H12.2186C14.2882 14.7483 15.9714 13.0643 15.9714 10.9947V5.0054C15.9714 2.93581 14.2882 1.25177 12.2186 1.25177H5.0051ZM12.2186 16.0001H5.0051C2.24537 16.0001 -0.000298683 13.7544 -0.000298683 10.9947V5.0054C-0.000298683 2.24484 2.24537 0 5.0051 0H12.2186C14.9783 0 17.2232 2.24484 17.2232 5.0054V10.9947C17.2232 13.7544 14.9783 16.0001 12.2186 16.0001Z" fill="#113E21"/>
</g>
</svg>
