<svg width="96" height="96" viewBox="0 0 96 96" fill="none" xmlns="http://www.w3.org/2000/svg">
<path d="M41.0556 19C36.6073 19 33 22.6073 33 27.0556V39.9444C33 44.3927 36.6073 48 41.0556 48H53.9444C58.3927 48 62 44.3927 62 39.9444V27.0556C62 22.6073 58.3927 19 53.9444 19H41.0556ZM57.1667 22.2222C58.056 22.2222 58.7778 22.944 58.7778 23.8333C58.7778 24.7227 58.056 25.4444 57.1667 25.4444C56.2773 25.4444 55.5556 24.7227 55.5556 23.8333C55.5556 22.944 56.2773 22.2222 57.1667 22.2222ZM47.5 25.4444C51.9483 25.4444 55.5556 29.0517 55.5556 33.5C55.5556 37.9483 51.9483 41.5556 47.5 41.5556C43.0517 41.5556 39.4444 37.9483 39.4444 33.5C39.4444 29.0517 43.0517 25.4444 47.5 25.4444ZM47.5 28.6667C46.2181 28.6667 44.9887 29.1759 44.0823 30.0823C43.1759 30.9887 42.6667 32.2181 42.6667 33.5C42.6667 34.7819 43.1759 36.0113 44.0823 36.9177C44.9887 37.8241 46.2181 38.3333 47.5 38.3333C48.7819 38.3333 50.0113 37.8241 50.9177 36.9177C51.8241 36.0113 52.3333 34.7819 52.3333 33.5C52.3333 32.2181 51.8241 30.9887 50.9177 30.0823C50.0113 29.1759 48.7819 28.6667 47.5 28.6667Z" fill="black"/>
</svg>
