<svg width="34" height="6" viewBox="0 0 34 6" fill="none" xmlns="http://www.w3.org/2000/svg">
<path fill-rule="evenodd" clip-rule="evenodd" d="M28.4179 2.79104C28.4179 4.3325 29.6675 5.58209 31.209 5.58209C32.7504 5.58209 34 4.3325 34 2.79104C34 1.24959 32.7504 0 31.209 0C29.6675 0 28.4179 1.24959 28.4179 2.79104ZM33.4925 2.79104C33.4925 4.05223 32.4701 5.07463 31.209 5.07463C29.9478 5.07463 28.9254 4.05223 28.9254 2.79104C28.9254 1.52986 29.9478 0.507463 31.209 0.507463C32.4701 0.507463 33.4925 1.52986 33.4925 2.79104Z" fill="black"/>
<path fill-rule="evenodd" clip-rule="evenodd" d="M21.3134 2.79104C21.3134 4.3325 22.563 5.58209 24.1045 5.58209C25.6459 5.58209 26.8955 4.3325 26.8955 2.79104C26.8955 1.24959 25.6459 0 24.1045 0C22.563 0 21.3134 1.24959 21.3134 2.79104ZM26.3881 2.79104C26.3881 4.05223 25.3657 5.07463 24.1045 5.07463C22.8433 5.07463 21.8209 4.05223 21.8209 2.79104C21.8209 1.52986 22.8433 0.507463 24.1045 0.507463C25.3657 0.507463 26.3881 1.52986 26.3881 2.79104Z" fill="black"/>
<path fill-rule="evenodd" clip-rule="evenodd" d="M17 5.58209C18.5415 5.58209 19.791 4.3325 19.791 2.79104C19.791 1.24959 18.5415 0 17 0C15.4585 0 14.209 1.24959 14.209 2.79104C14.209 4.3325 15.4585 5.58209 17 5.58209Z" fill="black"/>
<path fill-rule="evenodd" clip-rule="evenodd" d="M9.89552 5.58209C11.437 5.58209 12.6866 4.3325 12.6866 2.79104C12.6866 1.24959 11.437 0 9.89552 0C8.35407 0 7.10448 1.24959 7.10448 2.79104C7.10448 4.3325 8.35407 5.58209 9.89552 5.58209Z" fill="black"/>
<path fill-rule="evenodd" clip-rule="evenodd" d="M2.79104 5.58209C4.3325 5.58209 5.58209 4.3325 5.58209 2.79104C5.58209 1.24959 4.3325 0 2.79104 0C1.24959 0 0 1.24959 0 2.79104C0 4.3325 1.24959 5.58209 2.79104 5.58209Z" fill="black"/>
</svg>
